<svg width="20" height="20" viewBox="0 0 20 20" fill="none" xmlns="http://www.w3.org/2000/svg">
<mask id="mask0_1125_1639" style="mask-type:alpha" maskUnits="userSpaceOnUse" x="0" y="0" width="20" height="20">
<rect width="20" height="20" fill="#D9D9D9"/>
</mask>
<g mask="url(#mask0_1125_1639)">
<path d="M8.10352 11.6667L9.99935 10.5208L11.8952 11.6667L11.3952 9.5L13.0618 8.0625L10.8743 7.875L9.99935 5.83333L9.12435 7.875L6.93685 8.0625L8.60352 9.5L8.10352 11.6667ZM4.16602 17.5V4.16667C4.16602 3.70833 4.32921 3.31597 4.6556 2.98958C4.98199 2.66319 5.37435 2.5 5.83268 2.5H14.166C14.6243 2.5 15.0167 2.66319 15.3431 2.98958C15.6695 3.31597 15.8327 3.70833 15.8327 4.16667V17.5L9.99935 15L4.16602 17.5ZM5.83268 14.9583L9.99935 13.1667L14.166 14.9583V4.16667H5.83268V14.9583Z" fill="#FFF200"/>
</g>
</svg>
