<svg width="20" height="21" viewBox="0 0 20 21" fill="none" xmlns="http://www.w3.org/2000/svg">
<mask id="mask0_1125_1819" style="mask-type:alpha" maskUnits="userSpaceOnUse" x="0" y="0" width="20" height="21">
<rect y="0.715576" width="20" height="20" fill="#D9D9D9"/>
</mask>
<g mask="url(#mask0_1125_1819)">
<path d="M4.9987 19.0483C4.54036 19.0483 4.148 18.8851 3.82161 18.5587C3.49523 18.2323 3.33203 17.8399 3.33203 17.3816V4.04826C3.33203 3.58993 3.49523 3.19756 3.82161 2.87118C4.148 2.54479 4.54036 2.38159 4.9987 2.38159H14.9987C15.457 2.38159 15.8494 2.54479 16.1758 2.87118C16.5022 3.19756 16.6654 3.58993 16.6654 4.04826V17.3816C16.6654 17.8399 16.5022 18.2323 16.1758 18.5587C15.8494 18.8851 15.457 19.0483 14.9987 19.0483H4.9987ZM4.9987 17.3816H14.9987V4.04826H13.332V9.88159L11.2487 8.63159L9.16536 9.88159V4.04826H4.9987V17.3816Z" fill="white"/>
</g>
</svg>
