<svg width="21" height="20" viewBox="0 0 21 20" fill="none" xmlns="http://www.w3.org/2000/svg">
<g clip-path="url(#clip0_1234_2916)">
<path fill-rule="evenodd" clip-rule="evenodd" d="M10.4702 0.407959C4.95694 0.407959 0.5 4.89776 0.5 10.4522C0.5 14.8922 3.35571 18.6506 7.31735 19.9808C7.81265 20.0808 7.99408 19.7647 7.99408 19.4988C7.99408 19.2659 7.97775 18.4678 7.97775 17.6361C5.20429 18.2349 4.62673 16.4388 4.62673 16.4388C4.18102 15.2747 3.52061 14.9755 3.52061 14.9755C2.61286 14.3602 3.58673 14.3602 3.58673 14.3602C4.59367 14.4267 5.12204 15.3912 5.12204 15.3912C6.01327 16.921 7.44939 16.4888 8.02714 16.2227C8.10959 15.5741 8.37388 15.1251 8.65449 14.8757C6.44245 14.6429 4.1151 13.7782 4.1151 9.92C4.1151 8.82245 4.51102 7.92449 5.13837 7.22612C5.03939 6.97673 4.69265 5.94551 5.23755 4.56531C5.23755 4.56531 6.07939 4.29918 7.97755 5.59633C8.79022 5.37646 9.62832 5.26462 10.4702 5.26367C11.312 5.26367 12.1702 5.3802 12.9627 5.59633C14.861 4.29918 15.7029 4.56531 15.7029 4.56531C16.2478 5.94551 15.9008 6.97673 15.8018 7.22612C16.4457 7.92449 16.8253 8.82245 16.8253 9.92C16.8253 13.7782 14.498 14.6261 12.2694 14.8757C12.6327 15.1916 12.9461 15.7902 12.9461 16.7382C12.9461 18.0851 12.9298 19.1661 12.9298 19.4986C12.9298 19.7647 13.1114 20.0808 13.6065 19.981C17.5682 18.6504 20.4239 14.8922 20.4239 10.4522C20.4402 4.89776 15.9669 0.407959 10.4702 0.407959Z" fill="white"/>
</g>
<defs>
<clipPath id="clip0_1234_2916">
<rect width="20" height="19.5918" fill="white" transform="translate(0.5 0.408203)"/>
</clipPath>
</defs>
</svg>
