<svg width="181" height="54" viewBox="0 0 181 54" fill="none" xmlns="http://www.w3.org/2000/svg">
<g clip-path="url(#clip0_1462_1666)">
<path d="M173.83 53.7304H7.17041C3.50381 53.7304 0.503906 50.7305 0.503906 47.0639V7.06494C0.503906 3.39834 3.50381 0.398438 7.17041 0.398438H173.83C177.497 0.398438 180.497 3.39834 180.497 7.06494V47.0639C180.497 50.7305 177.497 53.7304 173.83 53.7304Z" fill="#100F0D"/>
<path d="M173.83 0.398438H7.17041C3.50381 0.398438 0.503906 3.39834 0.503906 7.06494V47.0639C0.503906 50.7305 3.50381 53.7304 7.17041 53.7304H173.83C177.497 53.7304 180.497 50.7305 180.497 47.0639V7.06494C180.497 3.39834 177.497 0.398438 173.83 0.398438ZM173.83 1.46454C176.918 1.46454 179.43 3.97704 179.43 7.06494V47.0639C179.43 50.1518 176.918 52.6643 173.83 52.6643H7.17041C4.08251 52.6643 1.57111 50.1518 1.57111 47.0639V7.06494C1.57111 3.97704 4.08251 1.46454 7.17041 1.46454H173.83Z" fill="#A2A2A1"/>
<path d="M143.079 40.3973H145.567V23.7283H143.079V40.3973ZM165.488 29.7333L162.636 36.9597H162.551L159.591 29.7333H156.911L161.351 39.8333L158.819 45.4518H161.414L168.255 29.7338L165.488 29.7333ZM151.378 38.5039C150.565 38.5039 149.428 38.096 149.428 37.0883C149.428 35.8018 150.844 35.3086 152.065 35.3086C153.158 35.3086 153.674 35.544 154.338 35.8659C154.145 37.4101 152.816 38.5039 151.378 38.5039ZM151.68 29.3687C149.878 29.3687 148.013 30.1624 147.241 31.9208L149.449 32.8426C149.921 31.9208 150.8 31.6208 151.722 31.6208C153.009 31.6208 154.317 32.3921 154.338 33.765V33.9363C153.887 33.679 152.922 33.2931 151.744 33.2931C149.362 33.2931 146.94 34.6008 146.94 37.0455C146.94 39.2757 148.892 40.7126 151.078 40.7126C152.75 40.7126 153.674 39.9621 154.251 39.0825H154.338V40.3699H156.741V33.9789C156.741 31.0196 154.53 29.3687 151.68 29.3687ZM136.304 31.7624H132.765V26.0491H136.304C138.164 26.0491 139.219 27.5887 139.219 28.9057C139.219 30.1974 138.163 31.7624 136.304 31.7624ZM136.24 23.7287H130.278V40.3977H132.765V34.0828H136.24C138.997 34.0828 141.708 32.087 141.708 28.9063C141.708 25.7262 138.997 23.7287 136.24 23.7287ZM103.733 38.5067C102.014 38.5067 100.575 37.0671 100.575 35.0917C100.575 33.0933 102.014 31.6334 103.733 31.6334C105.429 31.6334 106.761 33.0934 106.761 35.0917C106.761 37.0671 105.429 38.5067 103.733 38.5067ZM106.589 30.6664H106.503C105.945 30.0006 104.87 29.3992 103.518 29.3992C100.682 29.3992 98.0832 31.8913 98.0832 35.0917C98.0832 38.2703 100.682 40.7405 103.518 40.7405C104.87 40.7405 105.945 40.1389 106.503 39.452H106.589V40.2675C106.589 42.4378 105.429 43.5971 103.561 43.5971C102.036 43.5971 101.091 42.5018 100.704 41.5783L98.5349 42.4804C99.1572 43.9834 100.811 45.8314 103.561 45.8314C106.483 45.8314 108.953 44.1126 108.953 39.9237V29.7427H106.589L106.589 30.6664ZM110.671 40.3968H113.162V23.7278H110.671V40.3968ZM116.835 34.898C116.771 32.7069 118.533 31.5902 119.8 31.5902C120.788 31.5902 121.625 32.0844 121.906 32.7928L116.835 34.898ZM124.568 33.0074C124.096 31.7408 122.657 29.3992 119.714 29.3992C116.792 29.3992 114.365 31.6975 114.365 35.0699C114.365 38.249 116.771 40.7406 119.993 40.7406C122.592 40.7406 124.096 39.1516 124.719 38.2276L122.786 36.9386C122.141 37.8839 121.261 38.5068 119.993 38.5068C118.726 38.5068 117.823 37.9266 117.244 36.7882L124.826 33.6523L124.568 33.0074ZM64.1591 31.1392V33.5449H69.9156C69.7437 34.8981 69.2926 35.886 68.6052 36.5735C67.7672 37.4109 66.4569 38.3349 64.159 38.3349C60.6147 38.3349 57.844 35.4782 57.844 31.934C57.844 28.3898 60.6147 25.5327 64.159 25.5327C66.0708 25.5327 67.4667 26.2846 68.4978 27.2513L70.1952 25.554C68.7556 24.1795 66.8442 23.127 64.159 23.127C59.3038 23.127 55.2227 27.0794 55.2227 31.934C55.2227 36.7881 59.3038 40.7406 64.159 40.7406C66.7792 40.7406 68.7557 39.8812 70.302 38.2704C71.8916 36.6808 72.3858 34.447 72.3858 32.6424C72.3858 32.0845 72.3424 31.569 72.2566 31.1392H64.1591ZM78.9311 38.5067C77.2123 38.5067 75.7301 37.089 75.7301 35.0699C75.7301 33.0293 77.2123 31.6335 78.9311 31.6335C80.6492 31.6335 82.1314 33.0293 82.1314 35.0699C82.1314 37.089 80.6492 38.5067 78.9311 38.5067ZM78.9311 29.3992C75.7941 29.3992 73.2384 31.7834 73.2384 35.0699C73.2384 38.3349 75.7941 40.7406 78.9311 40.7406C82.0669 40.7406 84.6231 38.3349 84.6231 35.0699C84.6231 31.7834 82.0669 29.3992 78.9311 29.3992ZM91.3481 38.5067C89.6305 38.5067 88.1478 37.089 88.1478 35.0699C88.1478 33.0293 89.6306 31.6335 91.3481 31.6335C93.0669 31.6335 94.5486 33.0293 94.5486 35.0699C94.5486 37.089 93.0669 38.5067 91.3481 38.5067ZM91.3481 29.3992C88.2123 29.3992 85.6566 31.7834 85.6566 35.0699C85.6566 38.3349 88.2123 40.7406 91.3481 40.7406C94.4851 40.7406 97.0408 38.3349 97.0408 35.0699C97.0408 31.7834 94.4851 29.3992 91.3481 29.3992Z" fill="white"/>
<path d="M28.1217 26.2961L13.9277 41.3621C13.9283 41.3652 13.9293 41.3678 13.9298 41.371C14.3652 43.007 15.8594 44.2116 17.6328 44.2116C18.3418 44.2116 19.0073 44.0199 19.5781 43.6835L19.6235 43.6569L35.6015 34.4369L28.1217 26.2961Z" fill="#EB3131"/>
<path d="M42.4823 23.7319L42.4687 23.7226L35.5705 19.7236L27.7988 26.6392L35.5975 34.4369L42.4593 30.4777C43.6623 29.8283 44.479 28.56 44.479 27.0975C44.479 25.6455 43.6734 24.3835 42.4823 23.7319Z" fill="#F6B60B"/>
<path d="M13.9251 12.7676C13.8398 13.0822 13.7949 13.4118 13.7949 13.7541V40.3771C13.7949 40.7187 13.8392 41.0494 13.9256 41.363L28.6096 26.682L13.9251 12.7676Z" fill="#5778C5"/>
<path d="M28.2278 27.0654L35.5751 19.7203L19.6151 10.4669C19.0349 10.1195 18.3579 9.91895 17.6334 9.91895C15.86 9.91895 14.3637 11.1257 13.9283 12.7636C13.9277 12.7652 13.9277 12.7663 13.9277 12.7677L28.2278 27.0654Z" fill="#3BAD49"/>
<path d="M63.693 13.4394H59.8035V14.4019H62.7181C62.6389 15.1873 62.3263 15.804 61.7993 16.2519C61.2722 16.6999 60.5993 16.9248 59.8035 16.9248C58.9306 16.9248 58.191 16.6207 57.5849 16.0166C56.991 15.3999 56.689 14.6374 56.689 13.7186C56.689 12.8 56.991 12.0374 57.5849 11.4208C58.191 10.8167 58.9306 10.5146 59.8035 10.5146C60.2515 10.5146 60.6785 10.5917 61.0701 10.7605C61.4618 10.9291 61.7763 11.1646 62.0222 11.4667L62.7618 10.7271C62.4263 10.3458 62.0014 10.0542 61.4742 9.8417C60.9471 9.62917 60.3972 9.52717 59.8034 9.52717C58.6389 9.52717 57.6515 9.93129 56.8452 10.7376C56.0389 11.5458 55.6348 12.5417 55.6348 13.7187C55.6348 14.8957 56.0389 15.8937 56.8452 16.7C57.6514 17.5061 58.6389 17.9104 59.8034 17.9104C61.0263 17.9104 62.0013 17.5187 62.7513 16.7228C63.4116 16.0604 63.7491 15.1646 63.7491 14.0438C63.7491 13.8542 63.7263 13.6519 63.693 13.4394ZM65.1998 9.70616V17.7311H69.885V16.7456H66.231V14.1999H69.5268V13.2374H66.231V10.6937H69.885V9.70613L65.1998 9.70616ZM76.4548 10.6937V9.70616H70.9403V10.6937H73.182V17.731H74.2132V10.6937H76.4548ZM81.4473 9.70616H80.4161V17.7311H81.4473V9.70616ZM88.2539 10.6937V9.70616H82.7395V10.6937H84.981V17.731H86.0122V10.6937H88.2539ZM98.6599 10.75C97.864 9.93123 96.8891 9.5271 95.7245 9.5271C94.5579 9.5271 93.583 9.93122 92.7871 10.7375C91.9912 11.5334 91.5997 12.5312 91.5997 13.7186C91.5997 14.906 91.9912 15.904 92.7871 16.6999C93.5829 17.506 94.5579 17.9103 95.7245 17.9103C96.8786 17.9103 97.864 17.506 98.6599 16.6999C99.4557 15.904 99.8473 14.9061 99.8473 13.7186C99.8473 12.5416 99.4557 11.5457 98.6599 10.75ZM93.5267 11.4208C94.1204 10.8167 94.8496 10.5145 95.7245 10.5145C96.5974 10.5145 97.3265 10.8167 97.9099 11.4208C98.5036 12.0145 98.7952 12.7894 98.7952 13.7186C98.7952 14.6499 98.5036 15.4227 97.9099 16.0165C97.3265 16.6206 96.5974 16.9247 95.7245 16.9247C94.8495 16.9247 94.1204 16.6206 93.5267 16.0165C92.9453 15.4102 92.6537 14.6499 92.6537 13.7186C92.6537 12.7894 92.9453 12.027 93.5267 11.4208ZM102.297 12.7333L102.254 11.1853H102.297L106.376 17.731H107.453V9.70608H106.422V14.4018L106.466 15.9498H106.422L102.522 9.70608H101.266V17.731H102.297V12.7333Z" fill="white" stroke="white" stroke-width="0.26666" stroke-miterlimit="10"/>
</g>
<defs>
<clipPath id="clip0_1462_1666">
<rect width="180" height="53.333" fill="white" transform="translate(0.5 0.397461)"/>
</clipPath>
</defs>
</svg>
