<svg width="109" height="110" viewBox="0 0 109 110" fill="none" xmlns="http://www.w3.org/2000/svg">
<rect x="0.5" y="1.21558" width="108" height="108" rx="4.5" fill="url(#paint0_linear_1125_1824)"/>
<rect x="0.5" y="1.21558" width="108" height="108" rx="4.5" stroke="#B8B8B8" style="mix-blend-mode:overlay"/>
<g filter="url(#filter0_i_1125_1824)">
<path d="M29.7419 36.0219C30.3792 35.3852 30.7373 34.5217 30.7373 33.6213V28H51.9668V37.2394H34.3666C33.4652 37.2394 32.6008 37.5971 31.9634 38.2338C31.326 38.8705 30.9679 39.734 30.9679 40.6345V47.4877C30.9679 48.3881 31.326 49.2516 31.9634 49.8883C32.6008 50.525 33.4652 50.8827 34.3666 50.8827H51.9668V60.0979H34.3666C33.4652 60.0979 32.6008 60.4556 31.9634 61.0923C31.326 61.729 30.9679 62.5925 30.9679 63.4929V70.3461C30.9679 71.2465 31.326 72.1101 31.9634 72.7468C32.6008 73.3835 33.4652 73.7412 34.3666 73.7412H51.9668V82.9806H30.7446V77.369C30.7446 76.4686 30.3865 75.6051 29.7492 74.9684C29.1118 74.3317 28.2473 73.974 27.3459 73.974H20V37.0163H27.3387C28.24 37.0163 29.1045 36.6586 29.7419 36.0219Z" fill="url(#paint1_linear_1125_1824)"/>
<path d="M29.7419 36.0219C30.3792 35.3852 30.7373 34.5217 30.7373 33.6213V28H51.9668V37.2394H34.3666C33.4652 37.2394 32.6008 37.5971 31.9634 38.2338C31.326 38.8705 30.9679 39.734 30.9679 40.6345V47.4877C30.9679 48.3881 31.326 49.2516 31.9634 49.8883C32.6008 50.525 33.4652 50.8827 34.3666 50.8827H51.9668V60.0979H34.3666C33.4652 60.0979 32.6008 60.4556 31.9634 61.0923C31.326 61.729 30.9679 62.5925 30.9679 63.4929V70.3461C30.9679 71.2465 31.326 72.1101 31.9634 72.7468C32.6008 73.3835 33.4652 73.7412 34.3666 73.7412H51.9668V82.9806H30.7446V77.369C30.7446 76.4686 30.3865 75.6051 29.7492 74.9684C29.1118 74.3317 28.2473 73.974 27.3459 73.974H20V37.0163H27.3387C28.24 37.0163 29.1045 36.6586 29.7419 36.0219Z" fill="black" fill-opacity="0.05"/>
<path d="M88.9854 60.3525H81.6371C80.7378 60.3525 79.8752 60.7085 79.2381 61.3426C78.6011 61.9767 78.2416 62.8371 78.2384 63.7355V70.3364C78.2384 71.2368 78.5965 72.1004 79.2339 72.7371C79.8712 73.3738 80.7357 73.7315 81.6371 73.7315H89V82.9709H78.0199V77.3593C78.0199 76.4589 77.6618 75.5954 77.0245 74.9587C76.3871 74.322 75.5226 73.9643 74.6213 73.9643H70.9046C70.0032 73.9643 69.1388 74.322 68.5014 74.9587C67.864 75.5954 67.5059 76.4589 67.5059 77.3593V83H56.5283V73.7606H63.8791C64.7805 73.7606 65.6449 73.4029 66.2823 72.7662C66.9197 72.1295 67.2777 71.266 67.2777 70.3655V63.7597C67.2777 62.8593 66.9197 61.9957 66.2823 61.359C65.6449 60.7223 64.7805 60.3646 63.8791 60.3646H56.5283V51.1252H67.5059V56.7271C67.5059 57.6275 67.864 58.4911 68.5014 59.1278C69.1388 59.7644 70.0032 60.1221 70.9046 60.1221H74.6067C75.5081 60.1221 76.3725 59.7644 77.0099 59.1278C77.6473 58.4911 78.0054 57.6275 78.0054 56.7271V51.1252H88.9854V60.3525Z" fill="url(#paint2_linear_1125_1824)"/>
<path d="M88.9854 60.3525H81.6371C80.7378 60.3525 79.8752 60.7085 79.2381 61.3426C78.6011 61.9767 78.2416 62.8371 78.2384 63.7355V70.3364C78.2384 71.2368 78.5965 72.1004 79.2339 72.7371C79.8712 73.3738 80.7357 73.7315 81.6371 73.7315H89V82.9709H78.0199V77.3593C78.0199 76.4589 77.6618 75.5954 77.0245 74.9587C76.3871 74.322 75.5226 73.9643 74.6213 73.9643H70.9046C70.0032 73.9643 69.1388 74.322 68.5014 74.9587C67.864 75.5954 67.5059 76.4589 67.5059 77.3593V83H56.5283V73.7606H63.8791C64.7805 73.7606 65.6449 73.4029 66.2823 72.7662C66.9197 72.1295 67.2777 71.266 67.2777 70.3655V63.7597C67.2777 62.8593 66.9197 61.9957 66.2823 61.359C65.6449 60.7223 64.7805 60.3646 63.8791 60.3646H56.5283V51.1252H67.5059V56.7271C67.5059 57.6275 67.864 58.4911 68.5014 59.1278C69.1388 59.7644 70.0032 60.1221 70.9046 60.1221H74.6067C75.5081 60.1221 76.3725 59.7644 77.0099 59.1278C77.6473 58.4911 78.0054 57.6275 78.0054 56.7271V51.1252H88.9854V60.3525Z" fill="black" fill-opacity="0.05"/>
<path d="M62.6803 37.5037C64.9551 38.2532 70.0025 39.8799 72.9374 40.8227C73.0363 40.8545 73.14 40.8535 73.2388 40.8214L81.1891 38.2365V43.9292C81.0122 43.9868 80.8766 44.1417 80.8491 44.3359L80.4935 46.8447C80.4507 47.1469 80.6834 47.4174 80.9864 47.4174H82.3275C82.6305 47.4174 82.8632 47.1469 82.8204 46.8447L82.4648 44.3359C82.4333 44.1139 82.2608 43.9433 82.0465 43.9107L81.9608 37.9857L83.1678 37.5932C83.6302 37.4429 83.627 36.7825 83.1632 36.6367L73.2351 33.5165C73.1386 33.4861 73.0352 33.4861 72.9387 33.5165L62.692 36.7368C62.2641 36.8713 62.2543 37.3633 62.6803 37.5037Z" fill="url(#paint3_linear_1125_1824)"/>
<path d="M62.6803 37.5037C64.9551 38.2532 70.0025 39.8799 72.9374 40.8227C73.0363 40.8545 73.14 40.8535 73.2388 40.8214L81.1891 38.2365V43.9292C81.0122 43.9868 80.8766 44.1417 80.8491 44.3359L80.4935 46.8447C80.4507 47.1469 80.6834 47.4174 80.9864 47.4174H82.3275C82.6305 47.4174 82.8632 47.1469 82.8204 46.8447L82.4648 44.3359C82.4333 44.1139 82.2608 43.9433 82.0465 43.9107L81.9608 37.9857L83.1678 37.5932C83.6302 37.4429 83.627 36.7825 83.1632 36.6367L73.2351 33.5165C73.1386 33.4861 73.0352 33.4861 72.9387 33.5165L62.692 36.7368C62.2641 36.8713 62.2543 37.3633 62.6803 37.5037Z" fill="black" fill-opacity="0.05"/>
<path d="M72.9374 41.5754C71.3227 41.0566 69.0685 40.3309 66.9884 39.6581V44.3797C66.9884 45.2125 67.4979 45.9654 68.2806 46.2323C72.335 47.6148 75.3021 47.7099 78.0063 46.3097C78.6041 46.0002 78.9364 45.3546 78.9364 44.6772V39.7216L73.2388 41.574C73.14 41.6061 73.0363 41.6071 72.9374 41.5754Z" fill="url(#paint4_linear_1125_1824)"/>
<path d="M72.9374 41.5754C71.3227 41.0566 69.0685 40.3309 66.9884 39.6581V44.3797C66.9884 45.2125 67.4979 45.9654 68.2806 46.2323C72.335 47.6148 75.3021 47.7099 78.0063 46.3097C78.6041 46.0002 78.9364 45.3546 78.9364 44.6772V39.7216L73.2388 41.574C73.14 41.6061 73.0363 41.6071 72.9374 41.5754Z" fill="black" fill-opacity="0.05"/>
</g>
<rect y="0.715576" width="109" height="109" rx="5" fill="#FFCC00" style="mix-blend-mode:color"/>
<defs>
<filter id="filter0_i_1125_1824" x="20" y="28" width="70" height="55" filterUnits="userSpaceOnUse" color-interpolation-filters="sRGB">
<feFlood flood-opacity="0" result="BackgroundImageFix"/>
<feBlend mode="normal" in="SourceGraphic" in2="BackgroundImageFix" result="shape"/>
<feColorMatrix in="SourceAlpha" type="matrix" values="0 0 0 0 0 0 0 0 0 0 0 0 0 0 0 0 0 0 127 0" result="hardAlpha"/>
<feOffset dx="1"/>
<feGaussianBlur stdDeviation="0.5"/>
<feComposite in2="hardAlpha" operator="arithmetic" k2="-1" k3="1"/>
<feColorMatrix type="matrix" values="0 0 0 0 0 0 0 0 0 0 0 0 0 0 0 0 0 0 0.45 0"/>
<feBlend mode="normal" in2="shape" result="effect1_innerShadow_1125_1824"/>
</filter>
<linearGradient id="paint0_linear_1125_1824" x1="4.9866e-07" y1="1.11928" x2="105.367" y2="110.119" gradientUnits="userSpaceOnUse">
<stop stop-color="#373737"/>
<stop offset="0.535" stop-color="#9E9E9E"/>
<stop offset="1" stop-color="#404040"/>
</linearGradient>
<linearGradient id="paint1_linear_1125_1824" x1="54.5" y1="28" x2="54.5" y2="83" gradientUnits="userSpaceOnUse">
<stop stop-color="white"/>
<stop offset="1" stop-color="#C8C8C8"/>
</linearGradient>
<linearGradient id="paint2_linear_1125_1824" x1="54.5" y1="28" x2="54.5" y2="83" gradientUnits="userSpaceOnUse">
<stop stop-color="white"/>
<stop offset="1" stop-color="#C8C8C8"/>
</linearGradient>
<linearGradient id="paint3_linear_1125_1824" x1="54.5" y1="28" x2="54.5" y2="83" gradientUnits="userSpaceOnUse">
<stop stop-color="white"/>
<stop offset="1" stop-color="#C8C8C8"/>
</linearGradient>
<linearGradient id="paint4_linear_1125_1824" x1="54.5" y1="28" x2="54.5" y2="83" gradientUnits="userSpaceOnUse">
<stop stop-color="white"/>
<stop offset="1" stop-color="#C8C8C8"/>
</linearGradient>
</defs>
</svg>
