<svg width="24" height="25" viewBox="0 0 24 25" fill="none" xmlns="http://www.w3.org/2000/svg">
<g clip-path="url(#clip0_1125_1832)">
<path d="M12.0039 0.715576C6.99403 0.715576 5.52882 0.720746 5.24402 0.744376C4.21591 0.82986 3.57615 0.991784 2.87917 1.33888C2.34205 1.60568 1.91843 1.91494 1.50035 2.34845C0.73896 3.13904 0.277507 4.11167 0.110458 5.26784C0.0292467 5.82911 0.00561688 5.94358 0.000818394 8.81054C-0.00102299 9.76619 0.000818394 11.0239 0.000818394 12.7109C0.000818394 17.7181 0.00635159 19.1822 0.0303531 19.4665C0.113415 20.4672 0.270305 21.0968 0.602552 21.7855C1.23751 23.1037 2.4502 24.0934 3.87886 24.4626C4.37354 24.59 4.9199 24.6602 5.6213 24.6934C5.91848 24.7063 8.94744 24.7156 11.9783 24.7156C15.0091 24.7156 18.0399 24.7119 18.3297 24.6971C19.1418 24.6589 19.6134 24.5956 20.1349 24.4608C21.5728 24.0897 22.7633 23.1148 23.4112 21.7781C23.737 21.106 23.9022 20.4524 23.9769 19.504C23.9932 19.2972 24 16.0003 24 12.7077C24 9.41465 23.9926 6.12378 23.9764 5.91699C23.9007 4.95322 23.7355 4.30517 23.3992 3.62019C23.1232 3.05946 22.8168 2.64071 22.372 2.21257C21.5781 1.4541 20.6072 0.992519 19.4503 0.825615C18.8897 0.744558 18.778 0.720556 15.9096 0.715576H12.0039Z" fill="url(#paint0_radial_1125_1832)"/>
<path d="M12.0039 0.715576C6.99403 0.715576 5.52882 0.720746 5.24402 0.744376C4.21591 0.82986 3.57615 0.991784 2.87917 1.33888C2.34205 1.60568 1.91843 1.91494 1.50035 2.34845C0.73896 3.13904 0.277507 4.11167 0.110458 5.26784C0.0292467 5.82911 0.00561688 5.94358 0.000818394 8.81054C-0.00102299 9.76619 0.000818394 11.0239 0.000818394 12.7109C0.000818394 17.7181 0.00635159 19.1822 0.0303531 19.4665C0.113415 20.4672 0.270305 21.0968 0.602552 21.7855C1.23751 23.1037 2.4502 24.0934 3.87886 24.4626C4.37354 24.59 4.9199 24.6602 5.6213 24.6934C5.91848 24.7063 8.94744 24.7156 11.9783 24.7156C15.0091 24.7156 18.0399 24.7119 18.3297 24.6971C19.1418 24.6589 19.6134 24.5956 20.1349 24.4608C21.5728 24.0897 22.7633 23.1148 23.4112 21.7781C23.737 21.106 23.9022 20.4524 23.9769 19.504C23.9932 19.2972 24 16.0003 24 12.7077C24 9.41465 23.9926 6.12378 23.9764 5.91699C23.9007 4.95322 23.7355 4.30517 23.3992 3.62019C23.1232 3.05946 22.8168 2.64071 22.372 2.21257C21.5781 1.4541 20.6072 0.992519 19.4503 0.825615C18.8897 0.744558 18.778 0.720556 15.9096 0.715576H12.0039Z" fill="url(#paint1_radial_1125_1832)"/>
<path d="M12.0039 0.715576C6.99403 0.715576 5.52882 0.720746 5.24402 0.744376C4.21591 0.82986 3.57615 0.991784 2.87917 1.33888C2.34205 1.60568 1.91843 1.91494 1.50035 2.34845C0.73896 3.13904 0.277507 4.11167 0.110458 5.26784C0.0292467 5.82911 0.00561688 5.94358 0.000818394 8.81054C-0.00102299 9.76619 0.000818394 11.0239 0.000818394 12.7109C0.000818394 17.7181 0.00635159 19.1822 0.0303531 19.4665C0.113415 20.4672 0.270305 21.0968 0.602552 21.7855C1.23751 23.1037 2.4502 24.0934 3.87886 24.4626C4.37354 24.59 4.9199 24.6602 5.6213 24.6934C5.91848 24.7063 8.94744 24.7156 11.9783 24.7156C15.0091 24.7156 18.0399 24.7119 18.3297 24.6971C19.1418 24.6589 19.6134 24.5956 20.1349 24.4608C21.5728 24.0897 22.7633 23.1148 23.4112 21.7781C23.737 21.106 23.9022 20.4524 23.9769 19.504C23.9932 19.2972 24 16.0003 24 12.7077C24 9.41465 23.9926 6.12378 23.9764 5.91699C23.9007 4.95322 23.7355 4.30517 23.3992 3.62019C23.1232 3.05946 22.8168 2.64071 22.372 2.21257C21.5781 1.4541 20.6072 0.992519 19.4503 0.825615C18.8897 0.744558 18.778 0.720556 15.9096 0.715576H12.0039Z" fill="url(#paint2_radial_1125_1832)"/>
<path d="M12.0039 0.715576C6.99403 0.715576 5.52882 0.720746 5.24402 0.744376C4.21591 0.82986 3.57615 0.991784 2.87917 1.33888C2.34205 1.60568 1.91843 1.91494 1.50035 2.34845C0.73896 3.13904 0.277507 4.11167 0.110458 5.26784C0.0292467 5.82911 0.00561688 5.94358 0.000818394 8.81054C-0.00102299 9.76619 0.000818394 11.0239 0.000818394 12.7109C0.000818394 17.7181 0.00635159 19.1822 0.0303531 19.4665C0.113415 20.4672 0.270305 21.0968 0.602552 21.7855C1.23751 23.1037 2.4502 24.0934 3.87886 24.4626C4.37354 24.59 4.9199 24.6602 5.6213 24.6934C5.91848 24.7063 8.94744 24.7156 11.9783 24.7156C15.0091 24.7156 18.0399 24.7119 18.3297 24.6971C19.1418 24.6589 19.6134 24.5956 20.1349 24.4608C21.5728 24.0897 22.7633 23.1148 23.4112 21.7781C23.737 21.106 23.9022 20.4524 23.9769 19.504C23.9932 19.2972 24 16.0003 24 12.7077C24 9.41465 23.9926 6.12378 23.9764 5.91699C23.9007 4.95322 23.7355 4.30517 23.3992 3.62019C23.1232 3.05946 22.8168 2.64071 22.372 2.21257C21.5781 1.4541 20.6072 0.992519 19.4503 0.825615C18.8897 0.744558 18.778 0.720556 15.9096 0.715576H12.0039Z" fill="url(#paint3_radial_1125_1832)"/>
<path d="M12.0062 3.79761C9.58271 3.79761 9.27858 3.80819 8.32674 3.85148C7.37678 3.89495 6.72835 4.04523 6.16096 4.26575C5.57407 4.49349 5.07622 4.79814 4.58023 5.29395C4.08387 5.78958 3.77898 6.28705 3.55032 6.87333C3.32909 7.44048 3.17851 8.08861 3.13576 9.0375C3.09319 9.98862 3.08203 10.2927 3.08203 12.7144C3.08203 15.136 3.09282 15.439 3.13594 16.3901C3.17963 17.3394 3.33003 17.9873 3.55051 18.5543C3.77861 19.1407 4.08349 19.6382 4.57967 20.1338C5.07548 20.6298 5.57333 20.9352 6.15985 21.163C6.72759 21.3835 7.37622 21.5338 8.326 21.5773C9.27783 21.6205 9.58178 21.6311 12.005 21.6311C14.4287 21.6311 14.7319 21.6205 15.6837 21.5772C16.6337 21.5338 17.2828 21.3835 17.8506 21.163C18.4373 20.9352 18.9344 20.6298 19.4302 20.1338C19.9266 19.6382 20.2315 19.1407 20.4601 18.5545C20.6795 17.9873 20.8301 17.3392 20.8747 16.3903C20.9174 15.4392 20.9286 15.136 20.9286 12.7144C20.9286 10.2927 20.9174 9.98881 20.8747 9.03768C20.8301 8.08842 20.6795 7.44048 20.4601 6.87352C20.2315 6.28705 19.9266 5.78957 19.4302 5.29395C18.9339 4.79795 18.4375 4.4933 17.85 4.26574C17.2812 4.04523 16.6324 3.89495 15.6824 3.85148C14.7306 3.80819 14.4275 3.79761 12.0034 3.79761H12.0062ZM11.2056 5.40448C11.4432 5.40411 11.7083 5.40448 12.0062 5.40448C14.3887 5.40448 14.6711 5.41303 15.6119 5.45575C16.482 5.49551 16.9542 5.64077 17.2687 5.76282C17.6851 5.92444 17.982 6.11764 18.2942 6.42972C18.6065 6.74181 18.7998 7.03904 18.9619 7.45514C19.0841 7.76909 19.2296 8.24094 19.2692 9.11032C19.312 10.0503 19.3213 10.3327 19.3213 12.7123C19.3213 15.092 19.312 15.3743 19.2692 16.3143C19.2294 17.1837 19.0841 17.6555 18.9619 17.9695C18.8002 18.3856 18.6065 18.6819 18.2942 18.9938C17.9818 19.3059 17.6853 19.4991 17.2687 19.6607C16.9545 19.7833 16.482 19.9282 15.6119 19.968C14.6713 20.0107 14.3887 20.02 12.0062 20.02C9.62342 20.02 9.34104 20.0107 8.40036 19.968C7.53034 19.9278 7.05815 19.7826 6.74341 19.6605C6.32698 19.4989 6.02953 19.3057 5.71722 18.9936C5.4049 18.6815 5.21156 18.385 5.04945 17.9687C4.92731 17.6548 4.78175 17.183 4.74215 16.3136C4.69939 15.3736 4.69084 15.0912 4.69084 12.7101C4.69084 10.3289 4.69939 10.0481 4.74215 9.10809C4.78194 8.2387 4.92731 7.76686 5.04945 7.45255C5.21118 7.03643 5.4049 6.73921 5.71722 6.42712C6.02953 6.11503 6.32698 5.92184 6.74341 5.75985C7.05796 5.63724 7.53034 5.49235 8.40036 5.45241C9.22354 5.41525 9.54256 5.40411 11.2057 5.40224L11.2056 5.40448ZM16.7694 6.88503C16.1782 6.88503 15.6986 7.36376 15.6986 7.95467C15.6986 8.54541 16.1782 9.02469 16.7694 9.02469C17.3605 9.02469 17.8402 8.54541 17.8402 7.95467C17.8402 7.36394 17.3605 6.88467 16.7694 6.88467L16.7694 6.88503ZM12.0062 8.13523C9.47544 8.13523 7.42363 10.1855 7.42363 12.7144C7.42363 15.2432 9.47544 17.2926 12.0062 17.2926C14.5369 17.2926 16.5879 15.2432 16.5879 12.7144C16.5879 10.1855 14.5367 8.13523 12.006 8.13523H12.0062ZM12.0062 9.74211C13.6488 9.74211 14.9806 11.0728 14.9806 12.7144C14.9806 14.3558 13.6488 15.6866 12.0062 15.6866C10.3633 15.6866 9.03169 14.3558 9.03169 12.7144C9.03169 11.0728 10.3633 9.74211 12.0062 9.74211Z" fill="white"/>
</g>
<defs>
<radialGradient id="paint0_radial_1125_1832" cx="0" cy="0" r="1" gradientUnits="userSpaceOnUse" gradientTransform="translate(23.225 11.9647) rotate(164.25) scale(15.3346 11.0479)">
<stop stop-color="#FF005F"/>
<stop offset="1" stop-color="#FC01D8"/>
</radialGradient>
<radialGradient id="paint1_radial_1125_1832" cx="0" cy="0" r="1" gradientUnits="userSpaceOnUse" gradientTransform="translate(6.37482 26.5641) rotate(-90) scale(19.1573 20.3254)">
<stop stop-color="#FFCC00"/>
<stop offset="0.1242" stop-color="#FFCC00"/>
<stop offset="0.5672" stop-color="#FE4A05"/>
<stop offset="0.6942" stop-color="#FF0F3F"/>
<stop offset="1" stop-color="#FE0657" stop-opacity="0"/>
</radialGradient>
<radialGradient id="paint2_radial_1125_1832" cx="0" cy="0" r="1" gradientUnits="userSpaceOnUse" gradientTransform="translate(12.6065 24.3771) rotate(-59.8703) scale(7.92169 10.3132)">
<stop stop-color="#FFCC00"/>
<stop offset="1" stop-color="#FFCC00" stop-opacity="0"/>
</radialGradient>
<radialGradient id="paint3_radial_1125_1832" cx="0" cy="0" r="1" gradientUnits="userSpaceOnUse" gradientTransform="translate(3.25629 1.69285) rotate(164.274) scale(15.1645 5.16655)">
<stop stop-color="#780CFF"/>
<stop offset="1" stop-color="#820BFF" stop-opacity="0"/>
</radialGradient>
<clipPath id="clip0_1125_1832">
<rect width="24" height="24" fill="white" transform="translate(0 0.715576)"/>
</clipPath>
</defs>
</svg>
