<svg width="20" height="20" viewBox="0 0 20 20" fill="none" xmlns="http://www.w3.org/2000/svg">
<mask id="mask0_1125_1649" style="mask-type:alpha" maskUnits="userSpaceOnUse" x="0" y="0" width="20" height="20">
<rect width="20" height="20" fill="#D9D9D9"/>
</mask>
<g mask="url(#mask0_1125_1649)">
<path d="M9.90951 18.3299L13.7012 8.32987H15.4512L19.2428 18.3299H17.4928L16.597 15.7882H12.5553L11.6595 18.3299H9.90951ZM3.32617 15.8299L2.15951 14.6632L6.36784 10.4549C5.88173 9.96876 5.44075 9.41321 5.04492 8.78821C4.64909 8.16321 4.28451 7.45487 3.95117 6.66321H5.70117C5.97895 7.20487 6.25673 7.6771 6.5345 8.07987C6.81228 8.48265 7.14562 8.88543 7.53451 9.28821C7.99284 8.82987 8.46853 8.18751 8.96159 7.36112C9.45464 6.53474 9.82617 5.74654 10.0762 4.99654H0.826172V3.32987H6.6595V1.66321H8.32617V3.32987H14.1595V4.99654H11.7428C11.4512 5.99654 11.0137 7.02432 10.4303 8.07987C9.84701 9.13543 9.27062 9.94098 8.70117 10.4965L10.7012 12.5382L10.0762 14.2465L7.53451 11.6424L3.32617 15.8299ZM13.0762 14.3299H16.0762L14.5762 10.0799L13.0762 14.3299Z" fill="#A7A7A7"/>
</g>
</svg>
