<svg width="16" height="17" viewBox="0 0 16 17" fill="none" xmlns="http://www.w3.org/2000/svg">
<mask id="mask0_1125_1840" style="mask-type:alpha" maskUnits="userSpaceOnUse" x="0" y="0" width="16" height="17">
<rect y="0.715576" width="16" height="16" fill="#D9D9D9"/>
</mask>
<g mask="url(#mask0_1125_1840)">
<path d="M3.33333 14.7156C2.96667 14.7156 2.65278 14.585 2.39167 14.3239C2.13056 14.0628 2 13.7489 2 13.3822V4.04891C2 3.68224 2.13056 3.36835 2.39167 3.10724C2.65278 2.84613 2.96667 2.71558 3.33333 2.71558H8V4.04891H3.33333V13.3822H12.6667V8.71558H14V13.3822C14 13.7489 13.8694 14.0628 13.6083 14.3239C13.3472 14.585 13.0333 14.7156 12.6667 14.7156H3.33333ZM6.46667 11.1822L5.53333 10.2489L11.7333 4.04891H9.33333V2.71558H14V7.38224H12.6667V4.98224L6.46667 11.1822Z" fill="#868686"/>
</g>
</svg>
