<svg width="16" height="16" viewBox="0 0 16 16" fill="none" xmlns="http://www.w3.org/2000/svg">
<mask id="mask0_1249_4376" style="mask-type:alpha" maskUnits="userSpaceOnUse" x="0" y="0" width="16" height="16">
<rect width="16" height="16" fill="#D9D9D9"/>
</mask>
<g mask="url(#mask0_1249_4376)">
<path d="M1.63304 7.04986L4.43304 4.24986C4.5886 4.09431 4.77193 3.9832 4.98304 3.91653C5.19415 3.84986 5.41082 3.83875 5.63304 3.8832L6.49971 4.06653C5.89971 4.77764 5.42748 5.42208 5.08304 5.99986C4.7386 6.57764 4.40526 7.27764 4.08304 8.09986L1.63304 7.04986ZM5.04971 8.56653C5.30526 7.76653 5.65248 7.01097 6.09137 6.29986C6.53026 5.58875 7.06082 4.92208 7.68304 4.29986C8.66082 3.32208 9.77748 2.59153 11.033 2.1082C12.2886 1.62486 13.4608 1.47764 14.5497 1.66653C14.7386 2.75542 14.5942 3.92764 14.1164 5.1832C13.6386 6.43875 12.9108 7.55542 11.933 8.5332C11.3219 9.14431 10.6553 9.67486 9.93304 10.1249C9.21082 10.5749 8.44971 10.9276 7.64971 11.1832L5.04971 8.56653ZM9.64971 6.56653C9.90526 6.82208 10.2192 6.94986 10.5914 6.94986C10.9636 6.94986 11.2775 6.82208 11.533 6.56653C11.7886 6.31097 11.9164 5.99708 11.9164 5.62486C11.9164 5.25264 11.7886 4.93875 11.533 4.6832C11.2775 4.42764 10.9636 4.29986 10.5914 4.29986C10.2192 4.29986 9.90526 4.42764 9.64971 4.6832C9.39415 4.93875 9.26637 5.25264 9.26637 5.62486C9.26637 5.99708 9.39415 6.31097 9.64971 6.56653ZM9.18304 14.5832L8.11637 12.1332C8.9386 11.811 9.64137 11.4776 10.2247 11.1332C10.808 10.7888 11.4553 10.3165 12.1664 9.71653L12.333 10.5832C12.3775 10.8054 12.3664 11.0249 12.2997 11.2415C12.233 11.4582 12.1219 11.6443 11.9664 11.7999L9.18304 14.5832ZM2.69971 10.6999C3.0886 10.311 3.56082 10.1138 4.11637 10.1082C4.67193 10.1026 5.14415 10.2943 5.53304 10.6832C5.92193 11.0721 6.11637 11.5443 6.11637 12.0999C6.11637 12.6554 5.92193 13.1276 5.53304 13.5165C5.25526 13.7943 4.79137 14.0332 4.14137 14.2332C3.49137 14.4332 2.59415 14.611 1.44971 14.7665C1.60526 13.6221 1.78304 12.7276 1.98304 12.0832C2.18304 11.4388 2.42193 10.9776 2.69971 10.6999Z" fill="white"/>
</g>
</svg>
