<svg width="38" height="38" viewBox="0 0 38 38" fill="none" xmlns="http://www.w3.org/2000/svg">
<path d="M19 0.800415C29.2724 0.800415 37.6004 9.12771 37.6006 19.4C37.6006 29.6725 29.2725 38.0006 19 38.0006C8.72768 38.0004 0.400391 29.6724 0.400391 19.4C0.400602 9.12784 8.72781 0.800626 19 0.800415ZM17.2559 10.8815C16.3663 14.1853 13.7852 16.7663 10.4814 17.6559L4 19.4L10.4814 21.1451C13.7852 22.0347 16.3663 24.6158 17.2559 27.9196L19 34.4L20.7451 27.9196C21.6347 24.6158 24.2157 22.0347 27.5195 21.1451L34 19.4L27.5195 17.6559C24.2157 16.7663 21.6347 14.1853 20.7451 10.8815L19 4.40002L17.2559 10.8815Z" fill="#FFF200"/>
</svg>
