<svg width="20" height="21" viewBox="0 0 20 21" fill="none" xmlns="http://www.w3.org/2000/svg">
<mask id="mask0_1125_1814" style="mask-type:alpha" maskUnits="userSpaceOnUse" x="0" y="0" width="20" height="21">
<rect y="0.715576" width="20" height="20" fill="#D9D9D9"/>
</mask>
<g mask="url(#mask0_1125_1814)">
<path d="M0.832031 17.3829V15.0496C0.832031 14.5773 0.953559 14.1433 1.19661 13.7475C1.43967 13.3516 1.76259 13.0496 2.16536 12.8412C3.02648 12.4107 3.90148 12.0878 4.79036 11.8725C5.67925 11.6572 6.58203 11.5496 7.4987 11.5496C8.41536 11.5496 9.31814 11.6572 10.207 11.8725C11.0959 12.0878 11.9709 12.4107 12.832 12.8412C13.2348 13.0496 13.5577 13.3516 13.8008 13.7475C14.0438 14.1433 14.1654 14.5773 14.1654 15.0496V17.3829H0.832031ZM15.832 17.3829V14.8829C15.832 14.2718 15.6619 13.685 15.3216 13.1225C14.9813 12.56 14.4987 12.0773 13.8737 11.6746C14.582 11.7579 15.2487 11.9003 15.8737 12.1016C16.4987 12.303 17.082 12.5496 17.6237 12.8412C18.1237 13.119 18.5056 13.428 18.7695 13.7683C19.0334 14.1086 19.1654 14.4801 19.1654 14.8829V17.3829H15.832ZM7.4987 10.7162C6.58203 10.7162 5.79731 10.3898 5.14453 9.73706C4.49175 9.08428 4.16536 8.29956 4.16536 7.38289C4.16536 6.46623 4.49175 5.68151 5.14453 5.02873C5.79731 4.37595 6.58203 4.04956 7.4987 4.04956C8.41536 4.04956 9.20009 4.37595 9.85287 5.02873C10.5056 5.68151 10.832 6.46623 10.832 7.38289C10.832 8.29956 10.5056 9.08428 9.85287 9.73706C9.20009 10.3898 8.41536 10.7162 7.4987 10.7162ZM15.832 7.38289C15.832 8.29956 15.5056 9.08428 14.8529 9.73706C14.2001 10.3898 13.4154 10.7162 12.4987 10.7162C12.3459 10.7162 12.1515 10.6989 11.9154 10.6641C11.6793 10.6294 11.4848 10.5912 11.332 10.5496C11.707 10.1051 11.9952 9.61206 12.1966 9.07039C12.398 8.52873 12.4987 7.96623 12.4987 7.38289C12.4987 6.79956 12.398 6.23706 12.1966 5.69539C11.9952 5.15373 11.707 4.66067 11.332 4.21623C11.5265 4.14678 11.7209 4.10164 11.9154 4.08081C12.1098 4.05998 12.3043 4.04956 12.4987 4.04956C13.4154 4.04956 14.2001 4.37595 14.8529 5.02873C15.5056 5.68151 15.832 6.46623 15.832 7.38289ZM2.4987 15.7162H12.4987V15.0496C12.4987 14.8968 12.4605 14.7579 12.3841 14.6329C12.3077 14.5079 12.207 14.4107 12.082 14.3412C11.332 13.9662 10.5751 13.685 9.8112 13.4975C9.04731 13.31 8.27648 13.2162 7.4987 13.2162C6.72092 13.2162 5.95009 13.31 5.1862 13.4975C4.42231 13.685 3.66536 13.9662 2.91536 14.3412C2.79036 14.4107 2.68967 14.5079 2.61328 14.6329C2.53689 14.7579 2.4987 14.8968 2.4987 15.0496V15.7162ZM7.4987 9.04956C7.95703 9.04956 8.34939 8.88637 8.67578 8.55998C9.00217 8.23359 9.16537 7.84123 9.16537 7.38289C9.16537 6.92456 9.00217 6.5322 8.67578 6.20581C8.34939 5.87942 7.95703 5.71623 7.4987 5.71623C7.04036 5.71623 6.648 5.87942 6.32161 6.20581C5.99523 6.5322 5.83203 6.92456 5.83203 7.38289C5.83203 7.84123 5.99523 8.23359 6.32161 8.55998C6.648 8.88637 7.04036 9.04956 7.4987 9.04956Z" fill="white"/>
</g>
</svg>
