<svg width="28" height="21" viewBox="0 0 28 21" fill="none" xmlns="http://www.w3.org/2000/svg">
<g clip-path="url(#clip0_1125_1850)">
<path d="M27.4149 3.83864C27.0929 2.60929 26.1442 1.64122 24.9394 1.31267C22.7559 0.715576 14 0.715576 14 0.715576C14 0.715576 5.24416 0.715576 3.06057 1.31267C1.85589 1.64122 0.907066 2.60929 0.585093 3.83864C0 6.06675 0 10.7156 0 10.7156C0 10.7156 0 15.3643 0.585093 17.5927C0.907066 18.8219 1.85589 19.7899 3.06057 20.1186C5.24416 20.7156 14 20.7156 14 20.7156C14 20.7156 22.7559 20.7156 24.9394 20.1186C26.1442 19.7899 27.0929 18.8219 27.4149 17.5927C28 15.3643 28 10.7156 28 10.7156C28 10.7156 28 6.06675 27.4149 3.83864Z" fill="#ED1D24"/>
<path d="M11.1367 14.9363L18.4549 10.7157L11.1367 6.49475V14.9363Z" fill="white"/>
</g>
<defs>
<clipPath id="clip0_1125_1850">
<rect width="28" height="20" fill="white" transform="translate(0 0.715576)"/>
</clipPath>
</defs>
</svg>
